# xmcd CD database file
#
# Track frame offsets:
#	150
#	26270
#	49460
#	73495
#	108802
#	131985
#	146842
#	172357
#	200262
#	230792
#	247360
#
# Disc length: 3768 seconds
#
# Revision: 4
# Processed by: cddbd v1.4PL0 Copyright (c) Steve Scherf et al.
# Submitted via: CDex 1.50Beta7
#
DISCID=b80eb60b
DTITLE=Tommy Castro - Live At The Filmore
DYEAR=1900
DGENRE=Blues
TTITLE0=Right As Rain
TTITLE1=Like An Angel
TTITLE2=Nasty Habits
TTITLE3=My Time After Awhile
TTITLE4=Lucky In Love
TTITLE5=I Got To Change
TTITLE6=Can't You See What You're Doing To Me
TTITLE7=Just A Man
TTITLE8=Can't Keep A Good Man Down
TTITLE9=The Girl Can't Help It
TTITLE10=Sex Machine
EXTD=
EXTT0=
EXTT1=
EXTT2=
EXTT3=
EXTT4=
EXTT5=
EXTT6=
EXTT7=
EXTT8=
EXTT9=
EXTT10=
PLAYORDER=
